<svg width="180" height="180" viewBox="0 0 180 180" fill="none" xmlns="http://www.w3.org/2000/svg">
<path d="M96.7963 42.4099L77.7184 31.5201L77.7184 152.721L96.7963 152.721L96.7963 42.4099Z" fill="#397740"/>
<path d="M54.7653 70.2189L89.9108 108.814L125.255 70.4209C136.863 57.6822 135.979 45.5811 129.687 36.0492C123.161 26.1259 110.614 25.6083 102.68 28.1964C96.419 30.2417 92.124 34.5026 90.1033 36.9456C88.094 34.49 83.8236 30.2038 77.5742 28.127C69.6583 25.4883 57.1051 25.9428 50.5127 35.8156C44.173 45.316 43.2226 57.4171 54.7653 70.2126L54.7653 70.2189Z" fill="#397740"/>
<path d="M51.4682 144.745L90.0629 112.115L51.6709 79.29C38.9337 68.5145 26.8274 69.3351 17.2956 75.1742C7.3751 81.2469 6.85682 92.8935 9.44821 100.26C11.4932 106.074 15.752 110.064 18.1969 111.938C15.7408 113.801 11.4537 117.771 9.37498 123.572C6.73852 130.92 7.18919 142.573 17.0647 148.696C26.5626 154.58 38.669 155.463 51.4682 144.745Z" fill="#397740"/>
<path d="M128.658 144.745L90.0629 112.115L128.455 79.29C141.192 68.5145 153.299 69.3351 162.83 75.1742C172.751 81.2469 173.269 92.8934 170.678 100.26C168.632 106.074 164.374 110.064 161.929 111.938C164.385 113.801 168.672 117.771 170.751 123.572C173.387 130.92 172.936 142.573 163.061 148.696C153.563 154.58 141.457 155.463 128.658 144.745Z" fill="#397740"/>
</svg>
